<svg xmlns="http://www.w3.org/2000/svg" width="11" height="18" viewBox="0 0 11 18"><g><g><path fill="#fff" d="M5.549 0c2.699 0 4.887 2.125 4.887 4.748S8.248 9.497 5.549 9.497C2.85 9.497.662 7.37.662 4.747.662 2.126 2.85 0 5.55 0zM3.548 4.747c0 1.074.896 1.944 2 1.944 1.106 0 2.002-.87 2.002-1.944 0-1.074-.896-1.945-2.001-1.945s-2.001.87-2.001 1.945zM1.36 9.497c.101 0 .2.01.294.031.283.017.534.077.684.15.558.271 1.396.904 3.071.904 1.676 0 3.258-.814 3.258-.814s.218-.159.654-.233a1.39 1.39 0 0 1 .38-.037l.083-.001c.14 0 .252.032.339.085.495.182.851.64.87 1.18l.001.001s.186 1.176-1.675 1.809c-1.498.51-1.73.55-1.764.547l2.787 2.619-.01.017c.182.234.29.526.29.843 0 .774-.646 1.401-1.443 1.401-.325 0-.625-.104-.866-.28l-.018.009-2.7-2.623-2.792 2.623-.019-.009c-.241.176-.54.28-.865.28-.797 0-1.443-.627-1.443-1.401 0-.316.107-.607.288-.842l-.009-.018 2.793-2.624S.197 12.572.01 10.944c-.082-.71.244-1.093.684-1.277.196-.108.423-.17.665-.17z"/><path fill="#ee7f00" d="M5.549 0c2.699 0 4.887 2.125 4.887 4.748S8.248 9.497 5.549 9.497C2.85 9.497.662 7.37.662 4.747.662 2.126 2.85 0 5.55 0zM3.548 4.747c0 1.074.896 1.944 2 1.944 1.106 0 2.002-.87 2.002-1.944 0-1.074-.896-1.945-2.001-1.945s-2.001.87-2.001 1.945zM1.36 9.497c.101 0 .2.01.294.031.283.017.534.077.684.15.558.271 1.396.904 3.071.904 1.676 0 3.258-.814 3.258-.814s.218-.159.654-.233a1.39 1.39 0 0 1 .38-.037l.083-.001c.14 0 .252.032.339.085.495.182.851.64.87 1.18l.001.001s.186 1.176-1.675 1.809c-1.498.51-1.73.55-1.764.547l2.787 2.619-.01.017c.182.234.29.526.29.843 0 .774-.646 1.401-1.443 1.401-.325 0-.625-.104-.866-.28l-.018.009-2.7-2.623-2.792 2.623-.019-.009c-.241.176-.54.28-.865.28-.797 0-1.443-.627-1.443-1.401 0-.316.107-.607.288-.842l-.009-.018 2.793-2.624S.197 12.572.01 10.944c-.082-.71.244-1.093.684-1.277.196-.108.423-.17.665-.17z"/></g></g></svg>