<svg xmlns="http://www.w3.org/2000/svg" width="17" height="14" viewBox="0 0 17 14"><g><g><path fill="#fff" d="M17 1.655a6.892 6.892 0 0 1-2.003.556A3.537 3.537 0 0 0 16.53.255c-.674.405-1.42.7-2.215.858A3.46 3.46 0 0 0 11.77-.003c-1.926 0-3.488 1.583-3.488 3.535 0 .277.03.547.09.806C5.474 4.19 2.904 2.783 1.183.644c-.3.522-.472 1.13-.472 1.777 0 1.227.616 2.309 1.552 2.943a3.428 3.428 0 0 1-1.58-.442v.044c0 1.713 1.202 3.142 2.797 3.467a3.452 3.452 0 0 1-1.575.06c.444 1.405 1.732 2.428 3.259 2.456A6.939 6.939 0 0 1 0 12.413 9.769 9.769 0 0 0 5.346 14c6.416 0 9.924-5.387 9.924-10.059 0-.153-.004-.306-.01-.457A7.13 7.13 0 0 0 17 1.655z"/><path fill="#00aae9" d="M17 1.655a6.892 6.892 0 0 1-2.003.556A3.537 3.537 0 0 0 16.53.255c-.674.405-1.42.7-2.215.858A3.46 3.46 0 0 0 11.77-.003c-1.926 0-3.488 1.583-3.488 3.535 0 .277.03.547.09.806C5.474 4.19 2.904 2.783 1.183.644c-.3.522-.472 1.13-.472 1.777 0 1.227.616 2.309 1.552 2.943a3.428 3.428 0 0 1-1.58-.442v.044c0 1.713 1.202 3.142 2.797 3.467a3.452 3.452 0 0 1-1.575.06c.444 1.405 1.732 2.428 3.259 2.456A6.939 6.939 0 0 1 0 12.413 9.769 9.769 0 0 0 5.346 14c6.416 0 9.924-5.387 9.924-10.059 0-.153-.004-.306-.01-.457A7.13 7.13 0 0 0 17 1.655z"/></g></g></svg>