<svg xmlns="http://www.w3.org/2000/svg" width="17" height="12" viewBox="0 0 17 12"><g><g><path fill="#fff" d="M2.615-.001h11.77C15.829-.001 17 1.193 17 2.666v6.667c0 1.472-1.171 2.666-2.615 2.666H2.615C1.171 11.999 0 10.805 0 9.333V2.666C0 1.193 1.17-.001 2.615-.001zm3.681 3.727v4.547s0 .568.523.568c.522 0 3.656-2.273 3.656-2.273s.523-.569 0-1.137c-.857-.934-3.157-2.235-3.656-2.274-.521-.04-.523.569-.523.569z"/><path fill="#d60007" d="M2.615-.001h11.77C15.829-.001 17 1.193 17 2.666v6.667c0 1.472-1.171 2.666-2.615 2.666H2.615C1.171 11.999 0 10.805 0 9.333V2.666C0 1.193 1.17-.001 2.615-.001zm3.681 3.727v4.547s0 .568.523.568c.522 0 3.656-2.273 3.656-2.273s.523-.569 0-1.137c-.857-.934-3.157-2.235-3.656-2.274-.521-.04-.523.569-.523.569z"/></g></g></svg>